<?xml version="1.0" encoding="UTF-8"?>
<svg width="80px" height="67px" viewBox="0 0 80 67" version="1.1" xmlns="http://www.w3.org/2000/svg" xmlns:xlink="http://www.w3.org/1999/xlink">
    <!-- Generator: Sketch 47.1 (45422) - http://www.bohemiancoding.com/sketch -->
    <title>cat-pet-kitten</title>
    <desc>Created with Sketch.</desc>
    <defs>
        <circle id="path-1" cx="54" cy="16" r="3"></circle>
        <circle id="path-2" cx="68" cy="16" r="3"></circle>
        <circle id="path-3" cx="71" cy="39" r="3"></circle>
        <circle id="path-4" cx="9" cy="27" r="3"></circle>
        <circle id="path-5" cx="3" cy="52" r="3"></circle>
    </defs>
    <g id="Version-2" stroke="none" stroke-width="1" fill="#ffc107" fill-rule="evenodd">
        <g id="full-preview-8" transform="translate(-773.000000, -723.000000)">
            <g id="cat-pet-kitten" transform="translate(774.000000, 723.000000)">
                <path d="M70.8037447,28.0900931 C73.3880111,26.6767641 77.5095991,22.7537507 77.5095991,18.3962971 C77.5095991,14.0388436 78.3035867,5.5330768 70.8037447,0.534218008 C68.3229608,2.09142809 66.6159652,6.24036281 66.6159652,9.16739569 C66.6076666,6.37230347 62.7317966,5.23505955 60.5008624,5.23505955" id="Path-559" stroke="#3F3F3F" stroke-linecap="round" stroke-linejoin="round"></path>
                <path d="M43.7548862,30.9755766 C48.5508999,30.9755766 52.4236236,28.6872398 54.3053673,27.1114591 C56.1871109,25.5356783 60.5095991,21.9105929 60.5095991,17.5531393 C60.5095991,13.1956858 61.3035867,5.5330768 53.8037447,0.534218008 C51.3229608,2.09142809 49.6159652,6.24036281 49.6159652,9.16739569 C49.6076666,6.37230347 45.7317966,5.23505955 43.5008624,5.23505955" id="Path-559" stroke="#3F3F3F" stroke-linecap="round" stroke-linejoin="round" transform="translate(52.017352, 15.754897) scale(-1, 1) translate(-52.017352, -15.754897) "></path>
                <path d="M58,22 C58,23.6568542 59.3431458,25 61,25 C62.6568542,25 64,23.6568542 64,22 L58,22 Z" id="Oval-39" stroke="#3F3F3F" stroke-linecap="round" stroke-linejoin="round"></path>
                <path d="M52.9872872,60.1690955 C43.5652674,60.1690955 33.7246895,66.0780184 25.8239885,66.0780184 C17.9232876,66.0780184 1.62184828,60.5976989 1.82777882,44.5401394 C2.03370936,28.4825799 14.2807167,20.4630084 22.2143443,20.4630084 C40.1224882,20.4630084 44.5112085,30.9247264 59.190875,30.9247264 C63.6560028,30.9247264 68.1431803,29.7982292 71.0064886,27.8993891 C70.8519012,33.9573187 71.0064886,36.9668611 71.0064886,41.8478899 C71.0064886,46.7289187 69.169298,51.9212704 60.1825784,51.9212704 C54.1914321,51.9212704 35.3291619,51.9212704 3.59576785,51.9212704" id="Path-558" stroke="#3F3F3F" stroke-linecap="round" stroke-linejoin="round"></path>
                <g id="Oval-Copy-493" transform="translate(54.000000, 16.000000) rotate(-90.000000) translate(-54.000000, -16.000000) ">
                    <use fill="#C2C2C2" fill-rule="evenodd" xlink:href="#path-1"></use>
                    <circle stroke="#151515" stroke-width="1.5" cx="54" cy="16" r="2.25"></circle>
                    <use stroke="#151515" stroke-width="1" xlink:href="#path-1"></use>
                </g>
                <g id="Oval-Copy-493" transform="translate(68.000000, 16.000000) rotate(-90.000000) translate(-68.000000, -16.000000) ">
                    <use fill="#C2C2C2" fill-rule="evenodd" xlink:href="#path-2"></use>
                    <circle stroke="#151515" stroke-width="1.5" cx="68" cy="16" r="2.25"></circle>
                    <use stroke="#151515" stroke-width="1" xlink:href="#path-2"></use>
                </g>
                <g id="Oval-Copy-493" transform="translate(71.000000, 39.000000) rotate(-90.000000) translate(-71.000000, -39.000000) ">
                    <use fill="#C2C2C2" fill-rule="evenodd" xlink:href="#path-3"></use>
                    <circle stroke="#151515" stroke-width="1.5" cx="71" cy="39" r="2.25"></circle>
                    <use stroke="#151515" stroke-width="1" xlink:href="#path-3"></use>
                </g>
                <g id="Oval-Copy-493" transform="translate(9.000000, 27.000000) rotate(-90.000000) translate(-9.000000, -27.000000) ">
                    <use fill="#C2C2C2" fill-rule="evenodd" xlink:href="#path-4"></use>
                    <circle stroke="#151515" stroke-width="1.5" cx="9" cy="27" r="2.25"></circle>
                    <use stroke="#151515" stroke-width="1" xlink:href="#path-4"></use>
                </g>
                <g id="Oval-Copy-493" transform="translate(3.000000, 52.000000) rotate(-90.000000) translate(-3.000000, -52.000000) ">
                    <use fill="#C2C2C2" fill-rule="evenodd" xlink:href="#path-5"></use>
                    <circle stroke="#151515" stroke-width="1.5" cx="3" cy="52" r="2.25"></circle>
                    <use stroke="#151515" stroke-width="1" xlink:href="#path-5"></use>
                </g>
            </g>
        </g>
    </g>
</svg>