<?xml version="1.0" encoding="UTF-8" standalone="no"?>
<svg
   xmlns:dc="http://purl.org/dc/elements/1.1/"
   xmlns:cc="http://creativecommons.org/ns#"
   xmlns:rdf="http://www.w3.org/1999/02/22-rdf-syntax-ns#"
   xmlns:svg="http://www.w3.org/2000/svg"
   xmlns="http://www.w3.org/2000/svg"
   xmlns:xlink="http://www.w3.org/1999/xlink"
   xmlns:sodipodi="http://sodipodi.sourceforge.net/DTD/sodipodi-0.dtd"
   xmlns:inkscape="http://www.inkscape.org/namespaces/inkscape"
   width="96px"
   height="92px"
   viewBox="0 0 96 92"
   version="1.1"
   id="svg58"
   sodipodi:docname="earth-2.svg"
   inkscape:version="0.92.4 (unknown)">
  <metadata
     id="metadata62">
    <rdf:RDF>
      <cc:Work
         rdf:about="">
        <dc:format>image/svg+xml</dc:format>
        <dc:type
           rdf:resource="http://purl.org/dc/dcmitype/StillImage" />
      </cc:Work>
    </rdf:RDF>
  </metadata>
  <sodipodi:namedview
     pagecolor="#ffffff"
     bordercolor="#666666"
     borderopacity="1"
     objecttolerance="10"
     gridtolerance="10"
     guidetolerance="10"
     inkscape:pageopacity="0"
     inkscape:pageshadow="2"
     inkscape:window-width="1920"
     inkscape:window-height="998"
     id="namedview60"
     showgrid="false"
     inkscape:zoom="7.2555304"
     inkscape:cx="24.075836"
     inkscape:cy="46.520815"
     inkscape:window-x="900"
     inkscape:window-y="272"
     inkscape:window-maximized="1"
     inkscape:current-layer="Oval-Copy-202" />
  <!-- Generator: Sketch 47.1 (45422) - http://www.bohemiancoding.com/sketch -->
  <title
     id="title2">earth-2</title>
  <desc
     id="desc4">Created with Sketch.</desc>
  <defs
     id="defs11">
    <circle
       id="path-1"
       cx="79"
       cy="12"
       r="3" />
    <circle
       id="path-2"
       cx="18"
       cy="12"
       r="3" />
    <circle
       id="path-3"
       cx="3"
       cy="44"
       r="3" />
    <circle
       id="path-4"
       cx="82"
       cy="74"
       r="3" />
    <circle
       id="path-5"
       cx="53"
       cy="33"
       r="3" />
  </defs>
  <g
     id="Version-2"
     stroke="none"
     stroke-width="1"
     fill="#ffc107"
     fill-rule="evenodd"
     style="fill:#52c4c4;fill-opacity:1">
    <g
       id="full-preview-1"
       transform="translate(-579.000000, -273.000000)"
       style="fill:#52c4c4;fill-opacity:1">
      <g
         id="earth-2"
         transform="translate(580.000000, 274.000000)"
         style="fill:#52c4c4;fill-opacity:1">
        <g
           id="Group-13"
           transform="translate(3.000000, 0.000000)"
           stroke="#3F3F3F"
           stroke-linecap="round"
           stroke-linejoin="round"
           style="fill:#52c4c4;fill-opacity:1">
          <path
             d="M17.6285974,45.5053925 C16.7659601,47.7023464 17.122004,48.1409658 18.8285972,50.9479092 C20.5351903,53.7548526 21.8395857,58.722382 21.5901352,63.7290346 C21.3406847,68.7356871 24.142882,63.3967639 28.0610132,56.7342682 C31.9791444,50.0717726 27.9560682,48.4407257 25.5022224,46.0073802 C23.0483767,43.5740347 17.676949,44.2743929 15.4154109,41.6206357 C13.1538728,38.9668784 14.4895869,36.6459429 18.8285972,34.5580927 C23.1676074,32.4702426 29.8143096,25.471068 25.5022224,25.3294534 C21.1901352,25.1878389 19.8489267,24.3320903 17.2571689,21.9698276 C14.665411,19.6075648 0.339589244,20.7807063 4.28189628,23.5220772 C8.22420332,26.2634482 9.22310425,26.2573868 8.22420332,33.173907 C7.22530239,40.0904272 18.4912346,43.3084385 17.6285974,45.5053925 Z"
             id="Path-47"
             style="fill:#52c4c4;fill-opacity:1" />
          <path
             d="M41.6975408,35.2030611 C39.7623115,37.2775713 34.3612929,41.3737415 41.0464776,45.8404196 C47.7316622,50.3070976 46.7589962,46.8317784 47.7316622,53.3034269 C48.7043282,59.7750754 50.9897847,62.9438634 54.0980504,57.5776189 C57.206316,52.2113745 55.5157967,47.9355135 57.783854,46.4946496 C60.0519114,45.0537858 57.968509,36.801363 62.3873201,39.0533387 C66.8061312,41.3053144 67.0126754,45.9238673 71.1581521,42.3639877 C75.3036289,38.8041082 73.3060995,45.9939634 76.1477661,44.5948233 C78.9894326,43.1956833 83.3307896,37.6580929 81.4460738,35.2258701 C79.5613579,32.7936474 84.8708909,28.0654998 84.5891376,25.9197809 C84.3073844,23.7740619 75.703247,21.2678489 63.2404375,22.5557253 C50.7776279,23.8436017 52.5113644,20.8845457 49.6489312,21.7674225 C46.786498,22.6502994 44.3006712,27.4685705 42.9149168,27.8513173 C41.5291624,28.2340642 37.1962243,34.512114 42.9149168,33.121875 C48.6336093,31.7316361 49.9935457,34.8141947 47.7316622,34.512114 C45.4697787,34.2100333 43.6327701,33.1285509 41.6975408,35.2030611 Z"
             id="Path-46"
             style="fill:#52c4c4;fill-opacity:1" />
          <path
             d="M87.7907899,53.6095277 C86.829181,52.7274872 84.2754262,53.1091951 82.1486365,53.8562671 C80.0218468,54.6033391 77.5559494,59.1806709 80.6834552,59.4258286 C83.8109611,59.6709863 83.2216743,59.8497142 85.8670363,60.9621502 C88.5123984,62.0745863 91.1443676,59.0367395 90.8818671,56.9842686 C90.6193667,54.9317977 88.7523989,54.4915683 87.7907899,53.6095277 Z"
             id="Path-48"
             style="fill:#52c4c4;fill-opacity:1" />
          <path
             d="M75.2515582,11.685254 C67.260757,4.42486869 56.6471202,0 45,0 C33.2544259,0 22.5598813,4.49999229 14.5463647,11.8699784"
             id="Oval-15"
             style="fill:#52c4c4;fill-opacity:1" />
          <path
             d="M0,45 C0,69.8528137 20.1471863,90 45,90 L45,90 C58.2326273,90 70.1312461,84.288431 78.365069,75.1960804"
             id="path17"
             style="fill:#52c4c4;fill-opacity:1" />
        </g>
        <g
           id="Oval-Copy-189"
           transform="translate(79.000000, 12.000000) rotate(-90.000000) translate(-79.000000, -12.000000) "
           style="fill:#52c4c4;fill-opacity:1">
          <use
             fill="#C2C2C2"
             fill-rule="evenodd"
             xlink:href="#path-1"
             id="use20"
             style="fill:#52c4c4;fill-opacity:1" />
          <circle
             stroke="#151515"
             stroke-width="1.5"
             cx="79"
             cy="12"
             r="2.25"
             id="circle22"
             style="fill:#52c4c4;fill-opacity:1" />
          <use
             stroke="#151515"
             stroke-width="1"
             xlink:href="#path-1"
             id="use24"
             style="fill:#00ff00;fill-opacity:1" />
        </g>
        <g
           id="Oval-Copy-195"
           transform="translate(18.000000, 12.000000) rotate(-90.000000) translate(-18.000000, -12.000000) "
           style="fill:#52c4c4;fill-opacity:1">
          <use
             fill="#C2C2C2"
             fill-rule="evenodd"
             xlink:href="#path-2"
             id="use27"
             style="fill:#52c4c4;fill-opacity:1" />
          <circle
             stroke="#151515"
             stroke-width="1.5"
             cx="18"
             cy="12"
             r="2.25"
             id="circle29"
             style="fill:#52c4c4;fill-opacity:1" />
          <use
             stroke="#151515"
             stroke-width="1"
             xlink:href="#path-2"
             id="use31"
             style="fill:#00ff00;fill-opacity:1" />
        </g>
        <g
           id="Oval-Copy-198"
           transform="translate(3.000000, 44.000000) rotate(-90.000000) translate(-3.000000, -44.000000) "
           style="fill:#52c4c4;fill-opacity:1">
          <use
             fill="#C2C2C2"
             fill-rule="evenodd"
             xlink:href="#path-3"
             id="use34"
             style="fill:#52c4c4;fill-opacity:1" />
          <circle
             stroke="#151515"
             stroke-width="1.5"
             cx="3"
             cy="44"
             r="2.25"
             id="circle36"
             style="fill:#52c4c4;fill-opacity:1" />
          <use
             stroke="#151515"
             stroke-width="1"
             xlink:href="#path-3"
             id="use38"
             style="fill:#00ff00;fill-opacity:1" />
        </g>
        <g
           id="Oval-Copy-202"
           transform="translate(82.000000, 74.000000) rotate(-90.000000) translate(-82.000000, -74.000000) "
           style="fill:#52c4c4;fill-opacity:1">
          <use
             fill="#C2C2C2"
             fill-rule="evenodd"
             xlink:href="#path-4"
             id="use41"
             style="fill:#52c4c4;fill-opacity:1" />
          <circle
             stroke="#151515"
             stroke-width="1.5"
             cx="82"
             cy="74"
             r="2.25"
             id="circle43"
             style="fill:#52c4c4;fill-opacity:1" />
          <use
             stroke="#151515"
             stroke-width="1"
             xlink:href="#path-4"
             id="use45"
             style="fill:#00ff00;fill-opacity:1" />
        </g>
        <g
           id="Oval-Copy-204"
           transform="translate(53.000000, 33.000000) rotate(-90.000000) translate(-53.000000, -33.000000) "
           style="fill:#00ff00;fill-opacity:1">
          <use
             fill="#C2C2C2"
             fill-rule="evenodd"
             xlink:href="#path-5"
             id="use48"
             style="fill:#00ff00;fill-opacity:1" />
          <circle
             stroke="#151515"
             stroke-width="1.5"
             cx="53"
             cy="33"
             r="2.25"
             id="circle50"
             style="fill:#00ff00;fill-opacity:1" />
          <use
             stroke="#151515"
             stroke-width="1"
             xlink:href="#path-5"
             id="use52"
             style="fill:#00ff00;fill-opacity:1" />
        </g>
      </g>
    </g>
  </g>
</svg>
