<svg width="470" height="470" viewBox="0 0 470 470" fill="none" xmlns="http://www.w3.org/2000/svg">
<g clip-path="url(#clip0)">
<path d="M270.336 234.965L34.39 462.165C23.341 454.614 16.781 442.054 16.897 428.672V41.258C16.781 27.876 23.341 15.316 34.39 7.76501L270.336 234.965Z" fill="#2196F3"/>
<path d="M352.896 155.605L270.336 234.965L34.3899 7.76498C35.2789 7.07598 36.2049 6.43498 37.1629 5.84498C49.6329 -1.71302 65.2089 -1.95702 77.9099 5.20498L352.896 155.605Z" fill="#4CAF50"/>
<path d="M452.95 234.965C453.104 250.072 444.895 264.026 431.617 271.232L352.897 314.325L270.337 234.965L352.897 155.605L431.617 198.698C444.895 205.904 453.104 219.858 452.95 234.965Z" fill="#FFC107"/>
<path d="M352.896 314.325L77.9099 464.725C65.1809 471.776 49.6639 471.532 37.1629 464.085C36.2049 463.495 35.2789 462.854 34.3899 462.165L270.337 234.965L352.896 314.325Z" fill="#F44336"/>
</g>
<defs>
<clipPath id="clip0">
<rect width="469.847" height="469.847" fill="white"/>
</clipPath>
</defs>
</svg>
