<?xml version="1.0" encoding="UTF-8" standalone="no"?>
<!-- Generator: Adobe Illustrator 19.0.0, SVG Export Plug-In . SVG Version: 6.00 Build 0)  -->

<svg
   xmlns:dc="http://purl.org/dc/elements/1.1/"
   xmlns:cc="http://creativecommons.org/ns#"
   xmlns:rdf="http://www.w3.org/1999/02/22-rdf-syntax-ns#"
   xmlns:svg="http://www.w3.org/2000/svg"
   xmlns="http://www.w3.org/2000/svg"
   xmlns:sodipodi="http://sodipodi.sourceforge.net/DTD/sodipodi-0.dtd"
   xmlns:inkscape="http://www.inkscape.org/namespaces/inkscape"
   version="1.1"
   id="Capa_1"
   x="0px"
   y="0px"
   fill="#ffc107"
   viewBox="0 0 463 463"
   style="enable-background:new 0 0 463 463;"
   xml:space="preserve"
   sodipodi:docname="libra.svg"
   inkscape:version="0.92.4 (unknown)"><metadata
     id="metadata3908"><rdf:RDF><cc:Work
         rdf:about=""><dc:format>image/svg+xml</dc:format><dc:type
           rdf:resource="http://purl.org/dc/dcmitype/StillImage" /><dc:title /></cc:Work></rdf:RDF></metadata><defs
     id="defs3906" /><sodipodi:namedview
     pagecolor="#ffffff"
     bordercolor="#666666"
     borderopacity="1"
     objecttolerance="10"
     gridtolerance="10"
     guidetolerance="10"
     inkscape:pageopacity="0"
     inkscape:pageshadow="2"
     inkscape:window-width="1920"
     inkscape:window-height="998"
     id="namedview3904"
     showgrid="false"
     inkscape:zoom="0.50971922"
     inkscape:cx="-202.07204"
     inkscape:cy="231.5"
     inkscape:window-x="900"
     inkscape:window-y="272"
     inkscape:window-maximized="1"
     inkscape:current-layer="Capa_1" /><path
     d="m 400.21159,298.85737 c 7.3e-4,-0.0801 0.009,-0.15864 0.009,-0.23873 0,-0.0175 -0.002,-0.0351 -0.003,-0.0534 -7.3e-4,-0.12966 -0.009,-0.25932 -0.019,-0.38974 -0.004,-0.0633 -0.007,-0.12661 -0.0138,-0.18915 -0.0117,-0.11212 -0.0306,-0.22348 -0.0488,-0.3356 -0.0131,-0.0801 -0.0241,-0.16093 -0.0408,-0.24025 -0.0182,-0.0862 -0.0415,-0.17161 -0.0634,-0.2578 -0.0262,-0.10296 -0.051,-0.20593 -0.0824,-0.30585 -0.0204,-0.0656 -0.0459,-0.13118 -0.0685,-0.19678 -0.0408,-0.11669 -0.0824,-0.23186 -0.13046,-0.34474 -0.007,-0.0175 -0.0124,-0.0358 -0.0204,-0.0541 L 341.91521,163.14195 v -17.44703 h 0.3644 c 6.22918,0 11.29662,-5.30314 11.29662,-11.82204 v -0.9061 c 0,-5.83322 -3.9939,-10.74127 -9.49644,-11.67102 L 248.627,105.17585 V 94.93339 c 3.62293,-4.249068 5.83051,-9.84661 5.83051,-15.975763 0,-13.247542 -10.29887,-24.025424 -22.95765,-24.025424 -12.65877,0 -22.95764,10.777882 -22.95764,24.025424 0,6.129153 2.20758,11.726695 5.83051,15.975763 v 9.68644 l -95.51036,16.65915 c -5.46902,0.95416 -9.43887,5.85839 -9.43887,11.6611 v 0.9328 c 0,6.5189 5.06744,11.82204 11.29661,11.82204 h 0.36441 v 17.44703 L 63.269153,296.25119 c -0.008,0.0175 -0.01312,0.0366 -0.02041,0.0541 -0.04737,0.11212 -0.08892,0.22805 -0.129729,0.34398 -0.02332,0.0656 -0.0481,0.13119 -0.06924,0.19754 -0.03134,0.0999 -0.05685,0.20289 -0.08236,0.30585 -0.02186,0.0862 -0.04519,0.17161 -0.06341,0.2578 -0.01603,0.0793 -0.0277,0.16017 -0.04081,0.24025 -0.01822,0.11212 -0.03717,0.22348 -0.04883,0.3356 -0.0066,0.0625 -0.0087,0.12661 -0.01385,0.18991 -0.0095,0.12966 -0.01749,0.25932 -0.01895,0.38822 0,0.0183 -0.0029,0.0359 -0.0029,0.0534 0,0.0808 0.008,0.15941 0.0087,0.24026 0.0029,0.0641 0.0022,0.12889 0.0073,0.19296 0.341085,23.5289 28.215311,41.89805 63.755936,41.89805 35.54062,0 63.41485,-18.36915 63.7552,-41.89729 0.005,-0.0641 0.004,-0.12889 0.007,-0.19372 7.3e-4,-0.0801 0.009,-0.15865 0.009,-0.23873 0,-0.0176 -0.002,-0.0351 -0.003,-0.0534 -7.3e-4,-0.12966 -0.009,-0.25933 -0.0189,-0.38975 -0.004,-0.0633 -0.007,-0.12661 -0.0139,-0.18915 -0.0117,-0.11212 -0.0306,-0.22348 -0.0488,-0.33559 -0.0131,-0.0801 -0.0241,-0.16094 -0.0408,-0.24026 -0.0182,-0.0862 -0.0415,-0.17161 -0.0634,-0.2578 -0.0262,-0.10296 -0.051,-0.20593 -0.0824,-0.30584 -0.0204,-0.0656 -0.0459,-0.13119 -0.0685,-0.19678 -0.0408,-0.1167 -0.0824,-0.23187 -0.13046,-0.34475 -0.007,-0.0175 -0.0124,-0.0359 -0.0204,-0.0541 l -57.81464,-133.11 v -17.44703 h 82.356 V 269.975 c -3.4728,2.0189 -5.83051,5.89424 -5.83051,10.33856 v 84.26898 l -34.62596,11.32399 c -7.1883,2.35144 -12.01815,9.22652 -12.01815,17.10839 v 9.33254 c 0,3.15915 2.44663,5.72034 5.46611,5.72034 h 128.27129 c 3.01948,0 5.46611,-2.56119 5.46611,-5.72034 v -9.33331 c 0,-7.88186 -4.82986,-14.75695 -12.01815,-17.10839 l -34.62596,-11.32322 v -84.26898 c 0,-4.44432 -2.35771,-8.31966 -5.83051,-10.33856 V 145.69492 h 82.356 v 17.44703 l -57.81537,133.11 c -0.008,0.0175 -0.0131,0.0366 -0.0204,0.0541 -0.0474,0.11212 -0.0889,0.22805 -0.12973,0.34398 -0.0233,0.0656 -0.0481,0.13119 -0.0692,0.19755 -0.0313,0.0999 -0.0568,0.20288 -0.0823,0.30584 -0.0219,0.0862 -0.0452,0.17161 -0.0634,0.2578 -0.016,0.0793 -0.0277,0.16017 -0.0408,0.24026 -0.0182,0.11211 -0.0372,0.22347 -0.0488,0.33559 -0.007,0.0625 -0.009,0.12661 -0.0138,0.18991 -0.009,0.12966 -0.0175,0.25933 -0.019,0.38822 0,0.0183 -0.003,0.0358 -0.003,0.0534 0,0.0808 0.008,0.15941 0.009,0.24026 0.003,0.0641 0.002,0.1289 0.007,0.19296 0.34108,23.52814 28.21531,41.89729 63.75593,41.89729 35.54062,0 63.41485,-18.36915 63.75521,-41.89729 0.005,-0.0648 0.004,-0.12966 0.007,-0.19449 z m -273.66096,-120.65186 49.8159,114.6928 H 76.734723 Z m 0,151.30296 c -25.31026,0 -47.148447,-11.04559 -51.887197,-25.16949 H 178.43855 c -4.73948,14.1239 -26.57766,25.16949 -51.88792,25.16949 z M 243.5253,280.31356 v 82.75424 h -24.05087 v -82.75424 c 0,-0.21051 0.16398,-0.38136 0.36441,-0.38136 h 23.32205 c 0.20042,0 0.36441,0.17085 0.36441,0.38136 z M 225.30494,268.49153 V 102.08686 c 1.97218,0.57967 4.04857,0.89619 6.19492,0.89619 2.14636,0 4.22275,-0.31652 6.19492,-0.89619 v 166.40467 z m 6.19492,-202.118649 c 6.63076,0 12.02544,5.645594 12.02544,12.584746 0,6.939153 -5.39468,12.584746 -12.02544,12.584746 -6.63075,0 -12.02543,-5.645593 -12.02543,-12.584746 0,-6.939152 5.39468,-12.584746 12.02543,-12.584746 z M 120.72011,134.25424 c -0.20042,0 -0.3644,-0.17085 -0.3644,-0.38136 v -0.9328 c 0,-0.18762 0.12827,-0.3455 0.30464,-0.37601 l 93.71238,-16.34492 v 18.03509 z M 290.1694,393.01415 v 3.61297 H 172.83033 v -3.61297 c 0,-2.85101 1.74696,-5.33822 4.34737,-6.18788 l 37.66512,-12.3178 h 33.31482 l 37.66512,12.3178 c 2.59968,0.85042 4.34664,3.33687 4.34664,6.18788 z m -41.5424,-276.2489 93.71019,15.82551 c 0.17783,0.0298 0.30683,0.18839 0.30683,0.37678 v 0.9061 c 0,0.21051 -0.16398,0.38136 -0.36441,0.38136 H 248.627 Z m 87.8221,61.44026 49.81591,114.6928 H 286.6332 Z m 0,151.30296 c -25.31026,0 -47.14844,-11.04559 -51.88719,-25.16949 h 103.77511 c -4.73947,14.1239 -26.57766,25.16949 -51.88792,25.16949 z"
     id="path3871"
     inkscape:connector-curvature="0"
     style="stroke-width:0.74557036;fill:#52c4c4;fill-opacity:1" /><g
     id="g3873" /><g
     id="g3875" /><g
     id="g3877" /><g
     id="g3879" /><g
     id="g3881" /><g
     id="g3883" /><g
     id="g3885" /><g
     id="g3887" /><g
     id="g3889" /><g
     id="g3891" /><g
     id="g3893" /><g
     id="g3895" /><g
     id="g3897" /><g
     id="g3899" /><g
     id="g3901" /></svg>