<?xml version="1.0" encoding="UTF-8"?>
<svg width="69px" height="84px" viewBox="0 0 69 84" version="1.1" xmlns="http://www.w3.org/2000/svg" xmlns:xlink="http://www.w3.org/1999/xlink">
    <!-- Generator: Sketch 47.1 (45422) - http://www.bohemiancoding.com/sketch -->
    <title>locked-door</title>
    <desc>Created with Sketch.</desc>
    <defs>
        <circle id="path-1" cx="31.0980762" cy="47.0980762" r="3"></circle>
        <circle id="path-2" cx="56.8480762" cy="42.0980762" r="3"></circle>
        <circle id="path-3" cx="29.8480762" cy="4.09807621" r="3"></circle>
        <circle id="path-4" cx="17.8480762" cy="75.0980762" r="3"></circle>
    </defs>
    <g id="Version-2" stroke="none" stroke-width="1" fill="#ffc107" fill-rule="evenodd">
        <g id="full-preview-8" transform="translate(-974.000000, -552.000000)">
            <g id="locked-door" transform="translate(975.000000, 552.000000)">
                <g id="Oval-Copy-35" transform="translate(31.098076, 47.098076) scale(-1, 1) rotate(-210.000000) translate(-31.098076, -47.098076) ">
                    <use fill="#C2C2C2" fill-rule="evenodd" xlink:href="#path-1"></use>
                    <circle stroke="#151515" stroke-width="1.5" cx="31.0980762" cy="47.0980762" r="2.25"></circle>
                    <use stroke="#151515" stroke-width="1" xlink:href="#path-1"></use>
                </g>
                <g id="Oval-Copy-37" transform="translate(56.848076, 42.098076) scale(-1, 1) rotate(-210.000000) translate(-56.848076, -42.098076) ">
                    <use fill="#C2C2C2" fill-rule="evenodd" xlink:href="#path-2"></use>
                    <circle stroke="#151515" stroke-width="1.5" cx="56.8480762" cy="42.0980762" r="2.25"></circle>
                    <use stroke="#151515" stroke-width="1" xlink:href="#path-2"></use>
                </g>
                <path d="M1.87612845,3.85925816 C35.5593407,3.85925816 52.9338509,3.85925816 53.9996591,3.85925816 C55.5983713,3.85925816 57.1143959,4.49853837 57.1143959,6.97399499 C57.1143959,8.6242994 57.1143959,12.3434609 57.1143959,18.1314796" id="Path-549" stroke="#3F3F3F" stroke-linecap="round" stroke-linejoin="round"></path>
                <path d="M56.6556669,51.1559258 C60.9403282,51.1559258 63.5371421,51.1559258 64.4461087,51.1559258 C65.8095586,51.1559258 67.0480223,50.1199926 67.0480223,48.5540122 C67.0480223,46.9880318 67.0480223,39.5060242 67.0480223,38.1512375 C67.0480223,36.7964509 66.1414711,35.4844499 64.3532877,35.4844499 C62.5651043,35.4844499 51.250496,35.4844499 49.6240225,35.4844499 C47.9975489,35.4844499 46.9717102,36.5535368 46.9717102,38.1996672 C46.9717102,39.8457976 46.9717102,47.2149777 46.9717102,48.5882127 C46.9717102,49.9614478 47.7767333,51.231297 49.5960169,51.231297 C50.8088726,51.231297 53.1620892,51.2061733 56.6556669,51.1559258 Z" id="Path-551" stroke="#3F3F3F" stroke-linecap="round" stroke-linejoin="round"></path>
                <path d="M57,35.5325772 C57,34.0554153 57,32.5524166 57,31.023581 C57,28.7303276 59.1133899,25.9668183 62.9783233,25.9668183" id="Path-552" stroke="#3F3F3F" stroke-linecap="round" stroke-linejoin="round" transform="translate(59.989162, 30.749698) scale(-1, 1) translate(-59.989162, -30.749698) "></path>
                <path d="M0.0120855895,66.3203557 C0.0120855895,68.2480258 0.938460285,68.4961266 1.91528877,69.0154003 C2.89211726,69.534674 35.3585963,82.6646285 37.0132804,83.1360153 C38.6679645,83.607402 39.2940299,82.5571923 39.2940299,80.7834499 C39.2940299,79.0097076 39.2940299,22.8295593 39.2940299,21.483753 C39.2940299,20.1379467 38.7297432,19.0033407 37.305569,18.3276816 C35.8813949,17.6520226 4.11601237,4.48944316 2.52444226,3.93790751 C0.932872145,3.38637185 0.0209136806,4.80754009 0.0209136806,6.02149891 C0.0209136806,7.23545773 0.0120855895,64.3926856 0.0120855895,66.3203557 Z" id="Path-548" stroke="#3F3F3F" stroke-linecap="round" stroke-linejoin="round"></path>
                <path d="M56.9585746,59.4582239 C56.9585746,63.3748388 56.9585746,65.8753233 56.9585746,66.9596772 C56.9585746,68.5862081 55.9741252,69.2665583 54.6516936,69.2665583 C53.7700725,69.2665583 48.7867104,69.2665583 39.7016074,69.2665583" id="Path-550" stroke="#3F3F3F" stroke-linecap="round" stroke-linejoin="round"></path>
                <path d="M51.0906291,35.4964101 C51.0906291,34.0413693 51.0906291,32.5494312 51.0906291,31.0205956 C51.0906291,28.7273422 53.204019,25.9638329 57.0689524,25.9638329" id="Path-552" stroke="#3F3F3F" stroke-linecap="round" stroke-linejoin="round"></path>
                <g id="Oval-Copy-37" transform="translate(29.848076, 4.098076) scale(-1, 1) rotate(-210.000000) translate(-29.848076, -4.098076) ">
                    <use fill="#C2C2C2" fill-rule="evenodd" xlink:href="#path-3"></use>
                    <circle stroke="#151515" stroke-width="1.5" cx="29.8480762" cy="4.09807621" r="2.25"></circle>
                    <use stroke="#151515" stroke-width="1" xlink:href="#path-3"></use>
                </g>
                <g id="Oval-Copy-37" transform="translate(17.848076, 75.098076) scale(-1, 1) rotate(-210.000000) translate(-17.848076, -75.098076) ">
                    <use fill="#C2C2C2" fill-rule="evenodd" xlink:href="#path-4"></use>
                    <circle stroke="#151515" stroke-width="1.5" cx="17.8480762" cy="75.0980762" r="2.25"></circle>
                    <use stroke="#151515" stroke-width="1" xlink:href="#path-4"></use>
                </g>
            </g>
        </g>
    </g>
</svg>