<?xml version="1.0" encoding="UTF-8" standalone="no"?>
<svg
   xmlns:dc="http://purl.org/dc/elements/1.1/"
   xmlns:cc="http://creativecommons.org/ns#"
   xmlns:rdf="http://www.w3.org/1999/02/22-rdf-syntax-ns#"
   xmlns:svg="http://www.w3.org/2000/svg"
   xmlns="http://www.w3.org/2000/svg"
   xmlns:sodipodi="http://sodipodi.sourceforge.net/DTD/sodipodi-0.dtd"
   xmlns:inkscape="http://www.inkscape.org/namespaces/inkscape"
   width="66px"
   height="59px"
   viewBox="0 0 66 59"
   version="1.1"
   id="svg37"
   sodipodi:docname="book.svg"
   inkscape:version="0.92.1 r15371">
  <metadata
     id="metadata41">
    <rdf:RDF>
      <cc:Work
         rdf:about="">
        <dc:format>image/svg+xml</dc:format>
        <dc:type
           rdf:resource="http://purl.org/dc/dcmitype/StillImage" />
        <dc:title>book</dc:title>
      </cc:Work>
    </rdf:RDF>
  </metadata>
  <sodipodi:namedview
     pagecolor="#ffffff"
     bordercolor="#666666"
     borderopacity="1"
     objecttolerance="10"
     gridtolerance="10"
     guidetolerance="10"
     inkscape:pageopacity="0"
     inkscape:pageshadow="2"
     inkscape:window-width="1920"
     inkscape:window-height="1009"
     id="namedview39"
     showgrid="false"
     inkscape:zoom="8"
     inkscape:cx="25.880977"
     inkscape:cy="38.372953"
     inkscape:window-x="1600"
     inkscape:window-y="24"
     inkscape:window-maximized="1"
     inkscape:current-layer="svg37" />
  <!-- Generator: Sketch 47.1 (45422) - http://www.bohemiancoding.com/sketch -->
  <title
     id="title2">book</title>
  <desc
     id="desc4">Created with Sketch.</desc>
  <defs
     id="defs9">
    <circle
       id="path-1"
       cx="62"
       cy="3"
       r="3" />
    <circle
       id="path-2"
       cx="33"
       cy="54"
       r="3" />
    <circle
       id="path-3"
       cx="3.5"
       cy="3"
       r="3" />
  </defs>
  <g
     id="g107"
     transform="matrix(0.09021888,0,0,0.09021888,7.2194782,7.0992564)">
    <g
       id="g49">
      <g
         id="g47">
        <path
           id="path43"
           d="m 145.66,4.277 c 75.561,0 136.556,60.995 136.556,136.556 0,75.561 -60.996,136.556 -136.556,136.556 C 70.1,277.389 9.104,216.394 9.104,140.833 9.104,65.272 70.099,4.277 145.66,4.277 Z"
           style="fill:#2394bc"
           inkscape:connector-curvature="0" />
        <path
           id="path45"
           d="m 169.329,284.671 c 69.188,-11.835 121.99,-71.009 121.99,-143.839 l -0.91,1.821 c 1.821,-13.656 1.821,-26.401 -0.91,-36.415 -0.91,8.193 -1.821,12.745 -3.642,14.566 0,-0.91 0,-9.104 -2.731,-20.028 -0.91,-8.193 -2.731,-16.387 -5.462,-23.67 0.91,3.641 0.91,6.373 0.91,9.104 C 267.65,57.988 242.159,22.484 177.523,23.394 c 0,0 22.759,2.731 32.773,18.207 0,0 -10.924,-2.731 -19.118,1.821 10.014,3.641 19.118,8.193 26.401,12.745 h 0.91 c 1.821,0.91 3.641,2.731 5.462,3.641 13.656,10.014 26.401,23.67 25.49,40.967 -3.641,-5.462 -7.283,-9.104 -12.745,-10.014 6.373,24.58 6.373,44.608 1.821,60.085 -3.641,-10.924 -6.373,-16.387 -9.104,-19.118 3.641,32.773 -0.91,56.443 -15.476,71.919 2.731,-9.104 3.641,-17.297 3.641,-23.67 -17.297,25.49 -36.415,39.146 -58.264,40.056 -8.193,0 -16.387,-0.91 -24.58,-3.641 -10.924,-3.641 -20.939,-10.014 -30.042,-19.118 13.656,0.91 27.311,-0.91 38.236,-7.283 l 18.207,-11.835 v 0 c 2.731,-0.91 4.552,-0.91 7.283,0 4.552,-0.91 6.373,-2.731 4.552,-7.283 -1.821,-2.731 -5.462,-5.462 -10.014,-8.193 -9.104,-4.552 -19.118,-3.641 -29.132,2.731 -10.014,5.462 -19.118,5.462 -28.222,-0.91 -5.462,-3.641 -11.835,-9.104 -17.297,-16.387 l -1.821,-3.641 c -0.91,8.193 0,17.297 3.641,30.042 v 0 0 C 86.484,162.68 85.573,152.666 86.484,144.473 v 0 c 0,-6.373 2.731,-10.924 8.193,-10.924 h -1.821 2.731 c 6.373,0.91 12.745,1.821 20.939,4.552 0.91,-7.283 0,-15.476 -5.462,-23.67 v 0 c 7.283,-7.283 13.656,-11.835 19.118,-14.566 2.731,-0.91 3.641,-3.641 4.552,-6.373 v 0 0 0 c 1.821,-3.641 0.91,-5.462 -0.91,-7.283 -5.462,0 -10.014,0 -15.476,-0.91 v 0 c -1.821,-0.91 -4.552,-2.731 -8.193,-5.462 l -8.193,-8.193 -2.731,-1.821 v 0 0 0 l -0.91,-0.91 0.91,-0.91 c 0.91,-6.373 2.731,-11.835 5.462,-16.387 l 0.91,-0.91 c 2.731,-4.552 8.193,-9.104 15.476,-14.566 -14.566,1.821 -27.311,8.193 -39.146,19.118 -9.104,-2.731 -20.939,-1.821 -33.684,3.641 l -1.821,0.91 v 0 l 1.821,-0.91 v 0 C 40.056,55.258 34.593,44.333 31.862,26.126 20.939,36.14 16.387,55.258 16.387,81.659 l -2.731,4.552 -0.91,0.91 v 0 0 0 c -1.821,2.731 -3.641,6.373 -6.373,10.924 -3.641,7.283 -5.462,12.745 -5.462,18.207 v 0 0 1.821 0 c 0,0.91 0,2.731 0,3.641 l 8.193,-6.373 c -2.731,8.193 -5.462,16.387 -6.373,24.58 v 3.641 L 0,140.833 c 0,30.953 10.014,60.085 26.401,83.754 l 0.91,0.91 0.91,0.91 c 11.835,16.387 27.311,30.042 45.519,40.967 12.745,7.283 26.401,12.745 40.967,16.387 l 2.731,0.91 c 2.731,0.91 6.373,0.91 9.104,1.821 2.731,0 4.552,0.91 7.283,0.91 h 2.731 4.552 4.552 3.641 6.373 c 3.641,0 7.283,-0.91 10.924,-0.91 0,-1.821 2.731,-1.821 2.731,-1.821 z m 91.948,-177.522 v 0.91 z"
           style="fill:#ec8840"
           inkscape:connector-curvature="0" />
      </g>
    </g>
    <g
       id="g51" />
    <g
       id="g53" />
    <g
       id="g55" />
    <g
       id="g57" />
    <g
       id="g59" />
    <g
       id="g61" />
    <g
       id="g63" />
    <g
       id="g65" />
    <g
       id="g67" />
    <g
       id="g69" />
    <g
       id="g71" />
    <g
       id="g73" />
    <g
       id="g75" />
    <g
       id="g77" />
    <g
       id="g79" />
  </g>
  <g
     id="g173"
     transform="matrix(0.04588758,0,0,0.04588758,35.632786,6.7807915)">
    <path
       id="path109"
       d="m 61.818,89.204 c 119.008,-138.496 339.68,-111.168 422.144,50.624 -58.08,0.032 -148.992,-0.032 -198.24,0 -35.712,0 -58.784,-0.8 -83.744,12.352 -29.344,15.456 -51.52,44.096 -59.232,77.76 z"
       style="fill:#f44336"
       inkscape:connector-curvature="0" />
    <path
       id="path111"
       d="m 170.842,256.02 c 0,46.944 38.176,85.12 85.088,85.12 46.912,0 85.088,-38.176 85.088,-85.12 0,-46.944 -38.176,-85.12 -85.088,-85.12 -46.944,-0.032 -85.088,38.176 -85.088,85.12 z"
       style="fill:#2196f3"
       inkscape:connector-curvature="0" />
    <path
       id="path113"
       d="M 288.922,367.444 C 241.178,381.62 185.274,365.908 154.682,313.044 131.322,272.724 69.562,165.172 41.53,116.244 -56.774,266.9 27.93,472.18 206.362,507.22 Z"
       style="fill:#4caf50"
       inkscape:connector-curvature="0" />
    <path
       id="path115"
       d="m 334.938,170.868 c 39.776,36.992 48.448,96.896 21.504,143.328 -20.288,35.008 -85.088,144.352 -116.48,197.28 183.84,11.328 317.856,-168.832 257.312,-340.64 z"
       style="fill:#ffc107"
       inkscape:connector-curvature="0" />
    <g
       id="g117" />
    <g
       id="g119" />
    <g
       id="g121" />
    <g
       id="g123" />
    <g
       id="g125" />
    <g
       id="g127" />
    <g
       id="g129" />
    <g
       id="g131" />
    <g
       id="g133" />
    <g
       id="g135" />
    <g
       id="g137" />
    <g
       id="g139" />
    <g
       id="g141" />
    <g
       id="g143" />
    <g
       id="g145" />
  </g>
  <g
     id="g233"
     transform="matrix(0.077949,0,0,0.077949,24.285188,28.576055)">
    <g
       id="g177">
      <path
         id="path175"
         d="M 224.138,22.932 C 202.571,8.166 175.879,0 145.782,0 118.252,0 93.581,6.81 73.052,19.263 33.534,42.997 9.199,87.423 9.199,144.349 c 0,76.999 54.613,147.143 136.556,147.143 81.933,0 136.538,-70.126 136.538,-147.143 C 282.284,90.227 260.289,47.403 224.138,22.932 Z m -78.365,4.261 c 43.953,0 54.586,61.068 54.586,116.537 0,51.4 -6.664,120.178 -54.058,120.178 -47.394,0 -55.214,-69.452 -55.214,-120.843 0.009,-55.469 10.724,-115.872 54.686,-115.872 z"
         style="fill:#e2574c"
         inkscape:connector-curvature="0" />
    </g>
    <g
       id="g179" />
    <g
       id="g181" />
    <g
       id="g183" />
    <g
       id="g185" />
    <g
       id="g187" />
    <g
       id="g189" />
    <g
       id="g191" />
    <g
       id="g193" />
    <g
       id="g195" />
    <g
       id="g197" />
    <g
       id="g199" />
    <g
       id="g201" />
    <g
       id="g203" />
    <g
       id="g205" />
    <g
       id="g207" />
  </g>
</svg>
