<svg width="19" height="26" viewBox="0 0 19 26" fill="none" xmlns="http://www.w3.org/2000/svg">
<path d="M18.3768 10.742L14.6311 12.4112L4.69411 17.4663L14.6311 22.2412V14.3486L18.3768 12.6615V24.3216L14.6311 25.9908L0 18.9923V15.2725L10.1278 10.3069L0 5.44256V1.66913L3.80539 0L18.3768 7.01035V10.742Z" fill="#49C1BF"/>
<path d="M0 1.66913L14.6311 8.67948L18.3768 7.01035L3.80539 0L0 1.66913Z" fill="#077A8F"/>
<path d="M18.3768 6.99463V10.7263L14.6311 12.3955V8.66376L18.3768 6.99463Z" fill="#298E97"/>
<path d="M0 1.67236V5.44579L10.1278 10.3101L0 15.2758V18.9956L14.6311 25.994V22.2504L4.69411 17.4695L14.6311 12.4144V8.68271L0 1.67236Z" fill="#49C1BF"/>
<path d="M14.6311 25.9664L18.3768 24.2973V12.6372L14.6311 14.3242V25.9664Z" fill="#298E97"/>
</svg>
